<svg width="40" height="40" fill="none" xmlns="http://www.w3.org/2000/svg"><path d="M35.408 9.87L25.45.423C25.106.171 24.771 0 24.339 0H5.702c-.939 0-1.616.767-1.616 1.616v36.768c0 .938.767 1.616 1.616 1.616h28.596c.939 0 1.616-.678 1.616-1.616V10.98c0-.425-.163-.768-.506-1.11zm-9.535-4.694l5.11 4.865h-5.11V5.176zm6.898 31.673H7.237V3.151H22.64v8.343c0 .939.767 1.616 1.616 1.616h8.514v23.74z" fill="#E0E0E0"/><path d="M24.877 15.11a1.43 1.43 0 00-1.926.604l-8.425 16.172c-.367.702-.114 1.6.604 1.926.817.376 1.674-.114 1.927-.604l8.425-16.171a1.427 1.427 0 00-.605-1.927zm-6.016 4.588c0-2.743-1.894-4.963-4.237-4.963-2.342 0-4.236 2.22-4.236 4.963s1.902 4.955 4.236 4.955c2.335 0 4.237-2.22 4.237-4.955zm-5.616 0c0-1.16.62-2.106 1.38-2.106.759 0 1.379.939 1.379 2.106 0 1.167-.612 2.098-1.38 2.098-.767 0-1.38-.939-1.38-2.098zm12.13 4.563c-2.342 0-4.236 2.22-4.236 4.963s1.894 4.964 4.236 4.964c2.343 0 4.237-2.22 4.237-4.964 0-2.742-1.894-4.963-4.236-4.963zm0 7.061c-.759 0-1.38-.938-1.38-2.106 0-1.167.621-2.106 1.38-2.106.76 0 1.38.939 1.38 2.106 0 1.168-.612 2.106-1.38 2.106z" fill="#E0E0E0"/></svg>