<svg width="40" height="40" fill="none" xmlns="http://www.w3.org/2000/svg"><path d="M28.9 9.1a2 2 0 100 4 2 2 0 000-4zm7.667 4.034a12.649 12.649 0 00-.767-4.05 8.233 8.233 0 00-1.933-2.95 7.834 7.834 0 00-2.95-1.917 12.167 12.167 0 00-4.05-.783c-1.767-.1-2.334-.1-6.867-.1-4.533 0-5.1 0-6.867.1a12.167 12.167 0 00-4.05.783 7.967 7.967 0 00-2.95 1.917 7.833 7.833 0 00-1.916 2.95 12.167 12.167 0 00-.784 4.05c-.1 1.766-.1 2.333-.1 6.866 0 4.534 0 5.1.1 6.867a12.17 12.17 0 00.784 4.05 7.833 7.833 0 001.916 2.95 7.966 7.966 0 002.95 1.916c1.296.49 2.666.755 4.05.784 1.767.1 2.334.1 6.867.1 4.533 0 5.1 0 6.867-.1a12.168 12.168 0 004.05-.784 7.834 7.834 0 002.95-1.916 8.083 8.083 0 001.933-2.95c.475-1.3.734-2.667.767-4.05 0-1.767.1-2.334.1-6.867 0-4.533 0-5.1-.1-6.867zm-3 13.533a9.352 9.352 0 01-.567 3.1 5.1 5.1 0 01-1.25 1.916 5.303 5.303 0 01-1.917 1.25 9.352 9.352 0 01-3.1.567c-1.666.084-2.283.1-6.666.1-4.384 0-5 0-6.667-.1a9.552 9.552 0 01-3.233-.5 5.452 5.452 0 01-1.834-1.25A5 5 0 017.1 29.834a9.234 9.234 0 01-.667-3.167c0-1.667-.1-2.284-.1-6.667s0-5 .1-6.666a9.234 9.234 0 01.584-3.167 5 5 0 011.316-1.833A5.233 5.233 0 0110.167 7a9.55 9.55 0 013.166-.566c1.667 0 2.284-.1 6.667-.1s5 0 6.667.1a9.35 9.35 0 013.1.566 5.1 5.1 0 011.983 1.334A5.1 5.1 0 0133 10.167a9.35 9.35 0 01.567 3.167c.083 1.666.1 2.283.1 6.666 0 4.384-.017 5-.1 6.667zM20 11.45A8.55 8.55 0 1028.567 20 8.532 8.532 0 0020 11.45zm0 14.1a5.55 5.55 0 110-11.099 5.55 5.55 0 010 11.1z" fill="#fff"/></svg>