<svg width="40" height="40" fill="none" xmlns="http://www.w3.org/2000/svg"><g clip-path="url(#clip0_6_36)"><path d="M39.277 17.362l-9.788-7.284V1.702A1.706 1.706 0 0027.787 0c-.936 0-1.702.766-1.702 1.702v5.843l-5.106-3.8a1.66 1.66 0 00-1.958 0L.723 17.362c-.765.51-.85 1.532-.34 2.298.51.765 1.532.85 2.298.34l1.702-1.26v19.558c0 .936.766 1.702 1.702 1.702H34c.936 0 1.702-.766 1.787-1.702V18.86L37.32 20c.34.255.681.34 1.021.34.511 0 1.022-.17 1.277-.68.51-.681.426-1.788-.34-2.298zM17.83 36.68v-8.51h4.425v8.51H17.83zm14.553 0H25.66V26.468c0-.936-.766-1.702-1.703-1.702h-7.744c-.936 0-1.702.766-1.702 1.702v10.213H7.702V19.234h24.681v17.447zM8.315 15.83l11.728-8.681 6.566 4.884c.104.101.222.189.35.26l4.754 3.537H8.315z" fill="#fff"/></g><defs><clipPath id="clip0_6_36"><path fill="#fff" d="M0 0h40v40H0z"/></clipPath></defs></svg>