<svg width="185" height="104" fill="none" xmlns="http://www.w3.org/2000/svg"><path d="M46.315 104c27.262 0 46.316-21.502 46.316-52.073C92.63 21.502 73.577 0 46.315 0 19.2 0 0 21.502 0 51.927 0 82.497 19.2 104 46.315 104zm0-22.672c-12.018 0-20.52-12.287-20.52-29.401 0-17.114 8.502-29.255 20.52-29.255 12.166 0 20.666 12.14 20.666 29.255 0 17.114-8.5 29.4-20.666 29.4zm59.787 20.917h78.414v-22.38h-40.013l15.829-11.263c17.589-11.994 23.158-22.38 23.158-35.69C183.49 13.75 167.661 0 145.089 0c-16.562 0-29.606 6.875-40.306 19.747l15.683 15.505c7.622-8.045 14.657-12.58 24.037-12.58 7.329 0 13.338 4.389 13.338 11.263 0 6.144-3.225 11.702-14.51 20.186l-37.229 27.792v20.332z" fill="#F2F9FB"/></svg>