<svg width="185" height="105" fill="none" xmlns="http://www.w3.org/2000/svg"><path d="M46.992 104.526c27.143 0 46.113-21.472 46.113-52 0-30.382-18.97-51.854-46.113-51.854C19.997.672.88 22.144.88 52.526c0 30.528 19.116 52 46.112 52zm0-22.64c-11.965 0-20.43-12.27-20.43-29.36s8.464-29.214 20.43-29.214c12.112 0 20.576 12.124 20.576 29.214 0 17.09-8.464 29.36-20.575 29.36zm98.05 22.786c24.224 0 39.838-12.562 39.838-30.236 0-12.854-9.631-20.742-20.722-23.37 11.237-3.214 18.533-11.686 18.533-22.933 0-15.776-14.155-27.461-37.795-27.461-18.532 0-30.79 7.742-39.4 17.82l14.009 15.191c6.567-6.427 13.863-10.663 22.765-10.663 9.047 0 15.03 3.652 15.03 9.787 0 5.843-5.399 9.202-15.468 9.056h-11.82v21.034l11.82-.146c12.695 0 17.511 3.213 17.511 9.494 0 5.843-5.545 10.079-15.614 10.079-9.339 0-18.679-3.652-25.975-10.955l-14.301 16.505c8.902 9.933 23.057 16.798 41.589 16.798z" fill="#F2F9FB"/></svg>