<?xml version="1.0" encoding="utf-8"?><svg viewBox="0 0 185 105" xmlns="http://www.w3.org/2000/svg" xmlns:xlink="http://www.w3.org/1999/xlink"><style>:root>svg{display:none}:root>svg:target{display:block}</style><svg fill="none" viewBox="0 0 24 24" id="arrow" xmlns="http://www.w3.org/2000/svg"><path d="M17 9.17a1 1 0 0 0-1.41 0L12 12.71 8.46 9.17a1 1 0 1 0-1.41 1.42l4.24 4.24a1.002 1.002 0 0 0 1.42 0L17 10.59a1.002 1.002 0 0 0 0-1.42z" fill="#003458"/></svg><svg fill="none" viewBox="0 0 32 32" id="check" xmlns="http://www.w3.org/2000/svg"><path d="m19.627 11.72-5.72 5.733-2.2-2.2a1.334 1.334 0 1 0-1.88 1.88l3.133 3.147a1.336 1.336 0 0 0 1.88 0l6.667-6.667a1.333 1.333 0 1 0-1.88-1.893zM16 2.667a13.333 13.333 0 1 0 0 26.666 13.333 13.333 0 0 0 0-26.666zm0 24A10.668 10.668 0 1 1 16 5.33a10.668 10.668 0 0 1 0 21.336z" fill="#fff"/></svg><svg fill="none" viewBox="0 0 61 43" id="dots" xmlns="http://www.w3.org/2000/svg"><path d="M14.375 0C5 8.475 0 17.45 0 25.675 0 35.771 5.5 43 13.375 43 20.25 43 26 37.142 26 30.038c0-6.855-5.625-12.713-12.375-12.713 1.125-4.113 4-8.351 8-11.84L14.375 0zm35 0C40 8.475 35 17.45 35 25.675 35 35.771 40.5 43 48.375 43 55.25 43 61 37.142 61 30.038c0-6.855-5.625-12.713-12.375-12.713 1.125-4.113 4-8.351 8-11.84L49.375 0z" fill="#82CDE5"/></svg><svg fill="none" viewBox="0 0 40 40" id="facebook" xmlns="http://www.w3.org/2000/svg"><path d="M25.2 8.867h3.133v-5.3a43.515 43.515 0 0 0-4.566-.233c-4.534 0-7.634 2.766-7.634 7.833v4.367h-5.116v5.933h5.116v15.2h6.134v-15.2h5.1l.766-5.933h-5.866V11.75c0-1.75.466-2.883 2.933-2.883z" fill="#fff"/></svg><svg fill="none" viewBox="0 0 40 40" id="file" xmlns="http://www.w3.org/2000/svg"><path d="M35.408 9.87 25.45.423C25.106.171 24.771 0 24.339 0H5.702c-.939 0-1.616.767-1.616 1.616v36.768c0 .938.767 1.616 1.616 1.616h28.596c.939 0 1.616-.678 1.616-1.616V10.98c0-.425-.163-.768-.506-1.11zm-9.535-4.694 5.11 4.865h-5.11V5.176zm6.898 31.673H7.237V3.151H22.64v8.343c0 .939.767 1.616 1.616 1.616h8.514v23.74z" fill="#E0E0E0"/><path d="M24.877 15.11a1.43 1.43 0 0 0-1.926.604l-8.425 16.172c-.367.702-.114 1.6.604 1.926.817.376 1.674-.114 1.927-.604l8.425-16.171a1.427 1.427 0 0 0-.605-1.927zm-6.016 4.588c0-2.743-1.894-4.963-4.237-4.963-2.342 0-4.236 2.22-4.236 4.963s1.902 4.955 4.236 4.955c2.335 0 4.237-2.22 4.237-4.955zm-5.616 0c0-1.16.62-2.106 1.38-2.106.759 0 1.379.939 1.379 2.106 0 1.167-.612 2.098-1.38 2.098-.767 0-1.38-.939-1.38-2.098zm12.13 4.563c-2.342 0-4.236 2.22-4.236 4.963s1.894 4.964 4.236 4.964c2.343 0 4.237-2.22 4.237-4.964 0-2.742-1.894-4.963-4.236-4.963zm0 7.061c-.759 0-1.38-.938-1.38-2.106 0-1.167.621-2.106 1.38-2.106.76 0 1.38.939 1.38 2.106 0 1.168-.612 2.106-1.38 2.106z" fill="#E0E0E0"/></svg><svg fill="none" viewBox="0 0 24 24" id="house" xmlns="http://www.w3.org/2000/svg"><path d="m20 8-6-5.26a3 3 0 0 0-4 0L4 8a3 3 0 0 0-1 2.26V19a3 3 0 0 0 3 3h12a3 3 0 0 0 3-3v-8.75A3 3 0 0 0 20 8zm-6 12h-4v-5a1 1 0 0 1 1-1h2a1 1 0 0 1 1 1v5zm5-1a1 1 0 0 1-1 1h-2v-5a3 3 0 0 0-3-3h-2a3 3 0 0 0-3 3v5H6a1 1 0 0 1-1-1v-8.75a1 1 0 0 1 .34-.75l6-5.25a1 1 0 0 1 1.32 0l6 5.25a1.002 1.002 0 0 1 .34.75V19z" fill="#BDBDBD"/></svg><svg fill="none" viewBox="0 0 40 40" id="instagramm" xmlns="http://www.w3.org/2000/svg"><path d="M28.9 9.1a2 2 0 1 0 0 4 2 2 0 0 0 0-4zm7.667 4.034a12.649 12.649 0 0 0-.767-4.05 8.233 8.233 0 0 0-1.933-2.95 7.834 7.834 0 0 0-2.95-1.917 12.167 12.167 0 0 0-4.05-.783c-1.767-.1-2.334-.1-6.867-.1-4.533 0-5.1 0-6.867.1a12.167 12.167 0 0 0-4.05.783 7.967 7.967 0 0 0-2.95 1.917 7.833 7.833 0 0 0-1.916 2.95 12.167 12.167 0 0 0-.784 4.05c-.1 1.766-.1 2.333-.1 6.866 0 4.534 0 5.1.1 6.867a12.17 12.17 0 0 0 .784 4.05 7.833 7.833 0 0 0 1.916 2.95 7.966 7.966 0 0 0 2.95 1.916c1.296.49 2.666.755 4.05.784 1.767.1 2.334.1 6.867.1 4.533 0 5.1 0 6.867-.1a12.168 12.168 0 0 0 4.05-.784 7.834 7.834 0 0 0 2.95-1.916 8.083 8.083 0 0 0 1.933-2.95c.475-1.3.734-2.667.767-4.05 0-1.767.1-2.334.1-6.867 0-4.533 0-5.1-.1-6.867zm-3 13.533a9.352 9.352 0 0 1-.567 3.1 5.1 5.1 0 0 1-1.25 1.916 5.303 5.303 0 0 1-1.917 1.25 9.352 9.352 0 0 1-3.1.567c-1.666.084-2.283.1-6.666.1-4.384 0-5 0-6.667-.1a9.552 9.552 0 0 1-3.233-.5 5.452 5.452 0 0 1-1.834-1.25A5 5 0 0 1 7.1 29.834a9.234 9.234 0 0 1-.667-3.167c0-1.667-.1-2.284-.1-6.667s0-5 .1-6.666a9.234 9.234 0 0 1 .584-3.167 5 5 0 0 1 1.316-1.833A5.233 5.233 0 0 1 10.167 7a9.55 9.55 0 0 1 3.166-.566c1.667 0 2.284-.1 6.667-.1s5 0 6.667.1a9.35 9.35 0 0 1 3.1.566 5.1 5.1 0 0 1 1.983 1.334A5.1 5.1 0 0 1 33 10.167a9.35 9.35 0 0 1 .567 3.167c.083 1.666.1 2.283.1 6.666 0 4.384-.017 5-.1 6.667zM20 11.45A8.55 8.55 0 1 0 28.567 20 8.532 8.532 0 0 0 20 11.45zm0 14.1a5.55 5.55 0 1 1 0-11.099 5.55 5.55 0 0 1 0 11.1z" fill="#fff"/></svg><svg fill="none" viewBox="0 0 135 77" id="item1" xmlns="http://www.w3.org/2000/svg"><path d="M28.226 77C55.434 77 74.45 55.498 74.45 24.927 74.451-5.498 55.434-27 28.226-27 1.163-27-18-5.498-18 24.927-18 55.497 1.163 77 28.226 77zm0-22.672c-11.996 0-20.48-12.287-20.48-29.401 0-17.114 8.484-29.255 20.48-29.255 12.141 0 20.626 12.14 20.626 29.255 0 17.114-8.485 29.4-20.626 29.4zm81.906 20.917H135v-100.49h-19.895L83.215-3.889l9.948 17.407 16.969-10.532v72.259z" fill="#fff" fill-opacity=".06"/></svg><svg fill="none" viewBox="0 0 185 104" id="item2" xmlns="http://www.w3.org/2000/svg"><path d="M46.315 104c27.262 0 46.316-21.502 46.316-52.073C92.63 21.502 73.577 0 46.315 0 19.2 0 0 21.502 0 51.927 0 82.497 19.2 104 46.315 104zm0-22.672c-12.018 0-20.52-12.287-20.52-29.401 0-17.114 8.502-29.255 20.52-29.255 12.166 0 20.666 12.14 20.666 29.255 0 17.114-8.5 29.4-20.666 29.4zm59.787 20.917h78.414v-22.38h-40.013l15.829-11.263c17.589-11.994 23.158-22.38 23.158-35.69C183.49 13.75 167.661 0 145.089 0c-16.562 0-29.606 6.875-40.306 19.747l15.683 15.505c7.622-8.045 14.657-12.58 24.037-12.58 7.329 0 13.338 4.389 13.338 11.263 0 6.144-3.225 11.702-14.51 20.186l-37.229 27.792v20.332z" fill="#F2F9FB"/></svg><svg fill="none" viewBox="0 0 185 105" id="item3" xmlns="http://www.w3.org/2000/svg"><path d="M46.992 104.526c27.143 0 46.113-21.472 46.113-52 0-30.382-18.97-51.854-46.113-51.854C19.997.672.88 22.144.88 52.526c0 30.528 19.116 52 46.112 52zm0-22.64c-11.965 0-20.43-12.27-20.43-29.36s8.464-29.214 20.43-29.214c12.112 0 20.576 12.124 20.576 29.214 0 17.09-8.464 29.36-20.575 29.36zm98.05 22.786c24.224 0 39.838-12.562 39.838-30.236 0-12.854-9.631-20.742-20.722-23.37 11.237-3.214 18.533-11.686 18.533-22.933 0-15.776-14.155-27.461-37.795-27.461-18.532 0-30.79 7.742-39.4 17.82l14.009 15.191c6.567-6.427 13.863-10.663 22.765-10.663 9.047 0 15.03 3.652 15.03 9.787 0 5.843-5.399 9.202-15.468 9.056h-11.82v21.034l11.82-.146c12.695 0 17.511 3.213 17.511 9.494 0 5.843-5.545 10.079-15.614 10.079-9.339 0-18.679-3.652-25.975-10.955l-14.301 16.505c8.902 9.933 23.057 16.798 41.589 16.798z" fill="#F2F9FB"/></svg><svg fill="none" viewBox="0 0 40 40" id="itemHouse" xmlns="http://www.w3.org/2000/svg"><g clip-path="url(#ka)"><path d="m39.277 17.362-9.788-7.284V1.702A1.706 1.706 0 0 0 27.787 0c-.936 0-1.702.766-1.702 1.702v5.843l-5.106-3.8a1.66 1.66 0 0 0-1.958 0L.723 17.362c-.765.51-.85 1.532-.34 2.298.51.765 1.532.85 2.298.34l1.702-1.26v19.558c0 .936.766 1.702 1.702 1.702H34c.936 0 1.702-.766 1.787-1.702V18.86L37.32 20c.34.255.681.34 1.021.34.511 0 1.022-.17 1.277-.68.51-.681.426-1.788-.34-2.298zM17.83 36.68v-8.51h4.425v8.51H17.83zm14.553 0H25.66V26.468c0-.936-.766-1.702-1.703-1.702h-7.744c-.936 0-1.702.766-1.702 1.702v10.213H7.702V19.234h24.681v17.447zM8.315 15.83l11.728-8.681 6.566 4.884c.104.101.222.189.35.26l4.754 3.537H8.315z" fill="#fff"/></g><defs><clipPath id="ka"><path fill="#fff" d="M0 0h40v40H0z"/></clipPath></defs></svg><svg fill="none" viewBox="0 0 24 24" id="locate" xmlns="http://www.w3.org/2000/svg"><path d="M18 4.48a8.485 8.485 0 0 0-12 12l5.27 5.28a1.002 1.002 0 0 0 1.42 0L18 16.43a8.45 8.45 0 0 0 0-11.95zM16.57 15 12 19.59 7.43 15a6.46 6.46 0 1 1 9.14 0zM9 7.41a4.32 4.32 0 0 0 0 6.1 4.31 4.31 0 0 0 7.36-3 4.24 4.24 0 0 0-1.26-3.05A4.3 4.3 0 0 0 9 7.41zm4.69 4.68a2.33 2.33 0 1 1 .67-1.63 2.33 2.33 0 0 1-.72 1.63h.05z" fill="#BDBDBD"/></svg><svg fill="none" viewBox="0 0 32 32" id="next" xmlns="http://www.w3.org/2000/svg"><path d="M20.72 15.053 13.173 7.52A1.334 1.334 0 1 0 11.28 9.4l6.6 6.667-6.6 6.6a1.333 1.333 0 0 0 0 1.88 1.332 1.332 0 0 0 .947.4 1.334 1.334 0 0 0 .946-.4l7.547-7.534a1.333 1.333 0 0 0 0-1.96z" fill="#fff"/></svg><svg fill="none" viewBox="0 0 32 32" id="previous" xmlns="http://www.w3.org/2000/svg"><path d="m11.333 17.067 7.6 7.466a1.289 1.289 0 0 0 1.867 0 1.289 1.289 0 0 0 0-1.866L14.267 16 20.8 9.333a1.289 1.289 0 0 0 0-1.866c-.267-.267-.533-.4-.933-.4s-.667.133-.934.4l-7.6 7.466c-.533.667-.533 1.467 0 2.134 0-.134 0-.134 0 0z" fill="#82CDE5"/></svg><svg fill="none" viewBox="0 0 40 40" id="tag" xmlns="http://www.w3.org/2000/svg"><g clip-path="url(#oa)"><path d="M39.873 19.48c-.17-.34-.51-.68-.934-.85l-11.55-4.586c.934-1.953 1.36-4.076 1.274-6.029-.085-2.462-1.104-4.5-2.717-5.944C21.87-1.496 14.906-.222 10.32 5.043c-1.699 1.953-2.973 4.246-3.482 6.624v.34l-5.86 2.802c-.849.424-1.188 1.274-.849 2.123L5.056 29.16c.17.425.51.764.934.934l24.54 9.766c.17.085.425.085.595.085.594 0 1.274-.425 1.528-1.189l7.219-18.003c.17-.424.17-.849 0-1.274zM12.783 7.165c3.312-3.821 8.322-5.01 10.955-2.717 1.189 1.104 1.529 2.632 1.614 3.651.084 1.529-.255 3.142-1.02 4.756l-9.85-3.907c-.425-.17-.934-.085-1.36.085l-2.292 1.104c.51-1.104 1.189-2.038 1.953-2.972zm17.409 28.958L7.858 27.292 3.867 17.186l10.02-4.84 8.492 3.397c-3.312 3.821-8.322 4.925-10.954 2.632-.68-.594-1.784-.51-2.378.17-.595.68-.51 1.784.17 2.378 1.528 1.274 3.481 1.953 5.604 1.953 3.397 0 7.219-1.783 10.02-4.925.256-.34.51-.595.765-.934l10.53 4.16-5.944 14.947z" fill="#E0E0E0"/></g><defs><clipPath id="oa"><path fill="#fff" d="M0 0h40v40H0z"/></clipPath></defs></svg><svg fill="none" viewBox="0 0 40 40" id="twitter" xmlns="http://www.w3.org/2000/svg"><path d="M38.318 6.583a1.667 1.667 0 0 0-2.516-1.433 12.465 12.465 0 0 1-3.124 1.323 8.586 8.586 0 0 0-5.623-2.07 8.72 8.72 0 0 0-8.705 8.439 18.386 18.386 0 0 1-11.357-6.54 1.687 1.687 0 0 0-1.428-.609 1.665 1.665 0 0 0-1.308.834 8.793 8.793 0 0 0-.404 7.948l-.003.002a1.735 1.735 0 0 0-.827 1.483c-.002.245.013.49.045.732a8.642 8.642 0 0 0 2.614 5.52 1.663 1.663 0 0 0-.11 1.283 8.673 8.673 0 0 0 3.936 4.87 12.44 12.44 0 0 1-5.983.747 1.667 1.667 0 0 0-1.108 3.055A21.57 21.57 0 0 0 14.1 35.602a21.313 21.313 0 0 0 20.775-15.605c.588-1.972.889-4.019.892-6.077l-.002-.333a9.617 9.617 0 0 0 2.553-7.004zm-5.51 5.354a1.659 1.659 0 0 0-.39 1.17c.017.275.015.551.015.813a18.038 18.038 0 0 1-.756 5.133A17.808 17.808 0 0 1 14.1 32.27c-1.431 0-2.858-.168-4.25-.502a15.799 15.799 0 0 0 4.903-2.606 1.666 1.666 0 0 0-1.003-2.977 5.346 5.346 0 0 1-3.69-1.558 8.4 8.4 0 0 0 .742-.175 1.666 1.666 0 0 0-.134-3.239 5.331 5.331 0 0 1-3.75-2.876c.302.04.605.067.909.076a1.7 1.7 0 0 0 1.64-1.16 1.667 1.667 0 0 0-.667-1.895 5.327 5.327 0 0 1-2.365-4.785 21.69 21.69 0 0 0 13.683 5.8 1.7 1.7 0 0 0 1.362-.6 1.667 1.667 0 0 0 .343-1.445 5.262 5.262 0 0 1-.145-1.215 5.383 5.383 0 0 1 5.377-5.376 5.307 5.307 0 0 1 3.908 1.7 1.655 1.655 0 0 0 1.535.496c.685-.133 1.36-.312 2.02-.536a11.133 11.133 0 0 1-1.71 2.54z" fill="#fff"/></svg><svg fill="none" viewBox="0 0 40 40" id="uil_search-alt" xmlns="http://www.w3.org/2000/svg"><path d="m35.117 28.05-3.45-3.533a5.133 5.133 0 0 0-5.667-.95l-1.5-1.5a11.667 11.667 0 1 0-2.35 2.35l1.483 1.483a5 5 0 0 0 .884 5.767L28.05 35.2a5 5 0 0 0 7.067 0 5 5 0 0 0 0-7.15zm-14.134-7.067A8.333 8.333 0 1 1 9.213 9.184a8.333 8.333 0 0 1 11.77 11.8zm11.784 11.784a1.667 1.667 0 0 1-2.367 0l-3.533-3.534a1.666 1.666 0 0 1 0-2.366 1.666 1.666 0 0 1 2.366 0l3.534 3.533a1.666 1.666 0 0 1 0 2.367z" fill="#fff"/></svg></svg>