<svg width="40" height="40" fill="none" xmlns="http://www.w3.org/2000/svg"><g clip-path="url(#clip0_6_40)"><path d="M39.873 19.48c-.17-.34-.51-.68-.934-.85l-11.55-4.586c.934-1.953 1.36-4.076 1.274-6.029-.085-2.462-1.104-4.5-2.717-5.944C21.87-1.496 14.906-.222 10.32 5.043c-1.699 1.953-2.973 4.246-3.482 6.624v.34l-5.86 2.802c-.849.424-1.188 1.274-.849 2.123L5.056 29.16c.17.425.51.764.934.934l24.54 9.766c.17.085.425.085.595.085.594 0 1.274-.425 1.528-1.189l7.219-18.003c.17-.424.17-.849 0-1.274zM12.783 7.165c3.312-3.821 8.322-5.01 10.955-2.717 1.189 1.104 1.529 2.632 1.614 3.651.084 1.529-.255 3.142-1.02 4.756l-9.85-3.907c-.425-.17-.934-.085-1.36.085l-2.292 1.104c.51-1.104 1.189-2.038 1.953-2.972zm17.409 28.958L7.858 27.292 3.867 17.186l10.02-4.84 8.492 3.397c-3.312 3.821-8.322 4.925-10.954 2.632-.68-.594-1.784-.51-2.378.17-.595.68-.51 1.784.17 2.378 1.528 1.274 3.481 1.953 5.604 1.953 3.397 0 7.219-1.783 10.02-4.925.256-.34.51-.595.765-.934l10.53 4.16-5.944 14.947z" fill="#E0E0E0"/></g><defs><clipPath id="clip0_6_40"><path fill="#fff" d="M0 0h40v40H0z"/></clipPath></defs></svg>