<svg width="40" height="40" fill="none" xmlns="http://www.w3.org/2000/svg"><path d="M38.318 6.583a1.667 1.667 0 00-2.516-1.433 12.465 12.465 0 01-3.124 1.323 8.586 8.586 0 00-5.623-2.07 8.72 8.72 0 00-8.705 8.439 18.386 18.386 0 01-11.357-6.54 1.687 1.687 0 00-1.428-.609 1.665 1.665 0 00-1.308.834 8.793 8.793 0 00-.404 7.948l-.003.002a1.735 1.735 0 00-.827 1.483c-.002.245.013.49.045.732a8.642 8.642 0 002.614 5.52 1.663 1.663 0 00-.11 1.283 8.673 8.673 0 003.936 4.87 12.44 12.44 0 01-5.983.747 1.667 1.667 0 00-1.108 3.055A21.57 21.57 0 0014.1 35.602a21.313 21.313 0 0020.775-15.605c.588-1.972.889-4.019.892-6.077l-.002-.333a9.617 9.617 0 002.553-7.004zm-5.51 5.354a1.659 1.659 0 00-.39 1.17c.017.275.015.551.015.813a18.038 18.038 0 01-.756 5.133A17.808 17.808 0 0114.1 32.27c-1.431 0-2.858-.168-4.25-.502a15.799 15.799 0 004.903-2.606 1.666 1.666 0 00-1.003-2.977 5.346 5.346 0 01-3.69-1.558 8.4 8.4 0 00.742-.175 1.666 1.666 0 00-.134-3.239 5.331 5.331 0 01-3.75-2.876c.302.04.605.067.909.076a1.7 1.7 0 001.64-1.16 1.667 1.667 0 00-.667-1.895 5.327 5.327 0 01-2.365-4.785 21.69 21.69 0 0013.683 5.8 1.7 1.7 0 001.362-.6 1.667 1.667 0 00.343-1.445 5.262 5.262 0 01-.145-1.215 5.383 5.383 0 015.377-5.376 5.307 5.307 0 013.908 1.7 1.655 1.655 0 001.535.496c.685-.133 1.36-.312 2.02-.536a11.133 11.133 0 01-1.71 2.54z" fill="#fff"/></svg>