<svg width="32" height="32" viewBox="0 0 32 32" fill="none" xmlns="http://www.w3.org/2000/svg">
<path d="M20.7199 15.0533L13.1733 7.52001C13.0493 7.39504 12.9019 7.29584 12.7394 7.22815C12.5769 7.16046 12.4026 7.12561 12.2266 7.12561C12.0506 7.12561 11.8763 7.16046 11.7138 7.22815C11.5514 7.29584 11.4039 7.39504 11.2799 7.52001C11.0316 7.76982 10.8922 8.10776 10.8922 8.46001C10.8922 8.81226 11.0316 9.15019 11.2799 9.40001L17.8799 16.0667L11.2799 22.6667C11.0316 22.9165 10.8922 23.2544 10.8922 23.6067C10.8922 23.9589 11.0316 24.2969 11.2799 24.5467C11.4034 24.6727 11.5507 24.7729 11.7132 24.8415C11.8757 24.9102 12.0502 24.9459 12.2266 24.9467C12.403 24.9459 12.5775 24.9102 12.74 24.8415C12.9025 24.7729 13.0498 24.6727 13.1733 24.5467L20.7199 17.0133C20.8553 16.8885 20.9633 16.7369 21.0372 16.5683C21.111 16.3996 21.1492 16.2175 21.1492 16.0333C21.1492 15.8492 21.111 15.6671 21.0372 15.4984C20.9633 15.3297 20.8553 15.1782 20.7199 15.0533V15.0533Z" fill="white"/>
</svg>
